<svg width="18" height="18" viewBox="0 0 18 18" fill="none" xmlns="http://www.w3.org/2000/svg">
<g clip-path="url(#clip0_105_173)">
<path d="M17.1875 10.8857C16.3319 14.617 12.9902 17.4 8.99995 17.4C5.00957 17.4 1.66788 14.617 0.812282 10.8857H4.96032C5.66993 12.4036 7.21128 13.4572 8.99995 13.4572C10.7886 13.4572 12.3299 12.4036 13.0395 10.8857H17.1875ZM8.99995 4.54286C7.21128 4.54286 5.66993 5.59642 4.96032 7.11428H0.81228C1.66788 3.38298 5.00957 0.6 8.99995 0.6C12.9902 0.6 16.332 3.38298 17.1875 7.11428H13.0395C12.3299 5.59643 10.7886 4.54286 8.99995 4.54286ZM10.5428 9C10.5428 9.85212 9.85202 10.5428 8.99995 10.5428C8.1478 10.5428 7.45707 9.85211 7.45707 9C7.45707 8.14788 8.14781 7.45715 8.99995 7.45715C9.85201 7.45715 10.5428 8.14787 10.5428 9Z" stroke="white" stroke-width="1.2"/>
</g>
<defs>
<clipPath id="clip0_105_173">
<rect width="18" height="18" fill="white"/>
</clipPath>
</defs>
</svg>
